<svg width="13" height="11" viewBox="0 0 13 11" fill="none" xmlns="http://www.w3.org/2000/svg">
<path d="M1.52291 10.7875C1.12885 11.1115 0.543562 11.0592 0.215371 10.6703C0.070746 10.4988 5.03853e-07 10.2907 5.12893e-07 10.0839C5.24378e-07 9.82116 0.113808 9.56055 0.334285 9.37952L5.07469 5.4997L0.3593 1.6212C0.138938 1.43994 0.0250148 1.1795 0.0250148 0.91683C0.0250148 0.710044 0.0957594 0.502054 0.240384 0.330472C0.568576 -0.0585232 1.15386 -0.110943 1.54793 0.213201L6.52448 4.30653L11.476 0.212514C11.8701 -0.111544 12.4554 -0.0591815 12.7836 0.3299C13.1126 0.718323 13.0597 1.29609 12.6648 1.62063L7.95035 5.4997L12.6657 9.3782C13.0598 9.70189 13.1132 10.2799 12.7845 10.6689C12.4564 11.0579 11.8711 11.1103 11.477 10.7862L6.50045 6.69287L1.52291 10.7875Z" fill="#252B42"/>
</svg>
