<svg width="18" height="20" viewBox="0 0 18 20" fill="none" xmlns="http://www.w3.org/2000/svg">
<g clip-path="url(#clip0_641_1400)">
<path fill-rule="evenodd" clip-rule="evenodd" d="M0 10C0 9.62119 0.118513 9.25789 0.329468 8.99003C0.540423 8.72217 0.826539 8.57169 1.12487 8.57169L14.1577 8.57169L9.32746 2.44136C9.11624 2.17317 8.99757 1.80941 8.99757 1.43012C8.99757 1.05083 9.11624 0.687071 9.32746 0.418872C9.53868 0.150673 9.82516 0 10.1239 0C10.4226 0 10.7091 0.150673 10.9203 0.418872L17.6695 8.98875C17.7743 9.12143 17.8574 9.27905 17.9141 9.45257C17.9708 9.6261 18 9.81213 18 10C18 10.1879 17.9708 10.3739 17.9141 10.5474C17.8574 10.721 17.7743 10.8786 17.6695 11.0112L10.9203 19.5811C10.7091 19.8493 10.4226 20 10.1239 20C9.82516 20 9.53868 19.8493 9.32746 19.5811C9.11624 19.3129 8.99757 18.9492 8.99757 18.5699C8.99757 18.1906 9.11624 17.8268 9.32746 17.5586L14.1577 11.4283L1.12487 11.4283C0.826539 11.4283 0.540423 11.2778 0.329468 11.01C0.118513 10.7421 0 10.3788 0 10Z" fill="#252B42"/>
</g>
<defs>
<clipPath id="clip0_641_1400">
<rect width="18" height="20" fill="white"/>
</clipPath>
</defs>
</svg>
