<svg width="12" height="11" viewBox="0 0 12 11" fill="none" xmlns="http://www.w3.org/2000/svg">
<g clip-path="url(#clip0_641_1409)">
<path fill-rule="evenodd" clip-rule="evenodd" d="M6 0C6.22729 0 6.44526 0.0711081 6.60598 0.197681C6.7667 0.324254 6.85699 0.495923 6.85699 0.674925V8.4946L10.5352 5.59648C10.6961 5.46974 10.9144 5.39854 11.1419 5.39854C11.3695 5.39854 11.5878 5.46974 11.7487 5.59648C11.9096 5.72321 12 5.89509 12 6.07432C12 6.25355 11.9096 6.42544 11.7487 6.55217L6.60675 10.6017C6.52714 10.6646 6.43257 10.7144 6.32845 10.7485C6.22434 10.7825 6.11272 10.8 6 10.8C5.88728 10.8 5.77566 10.7825 5.67154 10.7485C5.56743 10.7144 5.47286 10.6646 5.39325 10.6017L0.251322 6.55217C0.0904026 6.42544 0 6.25355 0 6.07432C0 5.89509 0.0904026 5.72321 0.251322 5.59648C0.412242 5.46974 0.630495 5.39854 0.858069 5.39854C1.08564 5.39854 1.3039 5.46974 1.46482 5.59648L5.14301 8.4946V0.674925C5.14301 0.495923 5.2333 0.324254 5.39402 0.197681C5.55473 0.0711081 5.77271 0 6 0Z" fill="white"/>
</g>
<defs>
<clipPath id="clip0_641_1409">
<rect width="10.8" height="12" fill="white" transform="translate(12) rotate(90)"/>
</clipPath>
</defs>
</svg>
