<svg width="23" height="23" viewBox="0 0 23 23" fill="none" xmlns="http://www.w3.org/2000/svg">
<circle cx="11.5" cy="11.5" r="11.5" fill="#256EFF"/>
<path d="M8.04906 15.9999V14.8579L11.0789 11.8877C11.3687 11.5951 11.6101 11.3351 11.8033 11.1079C11.9965 10.8806 12.1414 10.6604 12.238 10.4474C12.3346 10.2343 12.3829 10.007 12.3829 9.76554C12.3829 9.48997 12.3204 9.25417 12.1954 9.05815C12.0704 8.85929 11.8985 8.70588 11.6797 8.59792C11.461 8.48997 11.2124 8.43599 10.934 8.43599C10.6471 8.43599 10.3957 8.49565 10.1797 8.61497C9.96383 8.73145 9.79622 8.89764 9.6769 9.11355C9.56042 9.32946 9.50219 9.58656 9.50219 9.88485H7.99792C7.99792 9.33088 8.12435 8.84934 8.37719 8.44025C8.63003 8.03116 8.97804 7.7144 9.42122 7.48997C9.86724 7.26554 10.3786 7.15332 10.9553 7.15332C11.5405 7.15332 12.0547 7.2627 12.4979 7.48145C12.9411 7.7002 13.2849 7.99991 13.5292 8.38059C13.7763 8.76128 13.8999 9.19593 13.8999 9.68457C13.8999 10.0113 13.8374 10.3323 13.7124 10.6476C13.5874 10.963 13.3672 11.3124 13.0519 11.6959C12.7394 12.0795 12.3005 12.5439 11.7351 13.0894L10.2309 14.6192V14.6789H14.032V15.9999H8.04906Z" fill="white"/>
</svg>
