<svg width="23" height="23" viewBox="0 0 23 23" fill="none" xmlns="http://www.w3.org/2000/svg">
<circle cx="11.5" cy="11.5" r="11.5" fill="#256EFF"/>
<path d="M10.9995 16.1192C10.3858 16.1192 9.84039 16.0141 9.36311 15.8039C8.88868 15.5937 8.51368 15.301 8.23811 14.926C7.96255 14.551 7.81624 14.1178 7.79919 13.6263H9.40147C9.41567 13.8621 9.4938 14.0681 9.63584 14.2442C9.77789 14.4175 9.96681 14.5525 10.2026 14.6491C10.4384 14.7457 10.7026 14.7939 10.9952 14.7939C11.3077 14.7939 11.5847 14.74 11.8262 14.632C12.0677 14.5212 12.2566 14.3678 12.3929 14.1718C12.5293 13.9758 12.5961 13.7499 12.5932 13.4942C12.5961 13.23 12.5279 12.9971 12.3887 12.7954C12.2495 12.5937 12.0478 12.436 11.7836 12.3224C11.5222 12.2087 11.2069 12.1519 10.8375 12.1519H10.0662V10.9332H10.8375C11.1415 10.9332 11.4071 10.8806 11.6344 10.7755C11.8645 10.6704 12.0449 10.5226 12.1756 10.3323C12.3063 10.1391 12.3702 9.9161 12.3674 9.66326C12.3702 9.4161 12.3148 9.20162 12.2012 9.0198C12.0904 8.83514 11.9327 8.69167 11.7282 8.5894C11.5265 8.48713 11.2893 8.43599 11.0165 8.43599C10.7495 8.43599 10.5023 8.48429 10.275 8.58088C10.0478 8.67747 9.86454 8.81525 9.72533 8.99423C9.58613 9.17037 9.51226 9.38059 9.50374 9.62491H7.98243C7.9938 9.13628 8.13442 8.7073 8.40431 8.33798C8.67704 7.96582 9.04067 7.67605 9.49522 7.46866C9.94976 7.25843 10.4597 7.15332 11.025 7.15332C11.6074 7.15332 12.1131 7.2627 12.5421 7.48145C12.9739 7.69735 13.3077 7.98855 13.5435 8.35503C13.7793 8.7215 13.8972 9.12633 13.8972 9.56951C13.9 10.061 13.7552 10.4729 13.4625 10.8053C13.1728 11.1377 12.7921 11.355 12.3205 11.4573V11.5255C12.9341 11.6107 13.4043 11.838 13.731 12.2073C14.0606 12.5738 14.2239 13.0297 14.2211 13.5752C14.2211 14.0638 14.0819 14.5013 13.8035 14.8877C13.5279 15.2712 13.1472 15.5724 12.6614 15.7911C12.1785 16.0099 11.6245 16.1192 10.9995 16.1192Z" fill="white"/>
</svg>
