<svg width="13" height="15" viewBox="0 0 13 15" fill="none" xmlns="http://www.w3.org/2000/svg">
<path d="M2.78571 0.9375C2.78571 0.419824 3.20067 0 3.71429 0C4.2279 0 4.64286 0.419824 4.64286 0.9375V1.875H8.35714V0.9375C8.35714 0.419824 8.7721 0 9.28571 0C9.79933 0 10.2143 0.419824 10.2143 0.9375V1.875H11.6071C12.3761 1.875 13 2.50459 13 3.28125V4.6875H0V3.28125C0 2.50459 0.623594 1.875 1.39286 1.875H2.78571V0.9375ZM13 13.5938C13 14.3701 12.3761 15 11.6071 15H1.39286C0.623594 15 0 14.3701 0 13.5938V5.625H13V13.5938Z" fill="#323641"/>
</svg>
