<svg width="23" height="23" viewBox="0 0 23 23" fill="none" xmlns="http://www.w3.org/2000/svg">
<circle cx="11.5" cy="11.5" r="11.5" fill="#92B7FF"/>
<path d="M17 8.8C17 9.0047 16.9233 9.2095 16.7698 9.3655L10.4841 15.7655C10.3313 15.9225 10.1299 16 9.92857 16C9.72723 16 9.52638 15.9219 9.37317 15.7656L6.23031 12.5656C6.07685 12.41 6 12.205 6 12C6 11.543 6.36708 11.2 6.78571 11.2C6.98676 11.2 7.1879 11.2781 7.34112 11.4344L9.92857 14.07L15.6594 8.235C15.8116 8.07825 16.0129 8 16.2143 8C16.6342 8 17 8.3425 17 8.8Z" fill="white"/>
</svg>
