<svg width="53" height="53" viewBox="0 0 53 53" fill="none" xmlns="http://www.w3.org/2000/svg">
<path d="M26.5 0C11.8629 0 0 11.8629 0 26.5C0 41.1371 11.8629 53 26.5 53C41.1371 53 53 41.1371 53 26.5C53 11.8629 41.1371 0 26.5 0ZM38.4871 21.9246L25.2371 35.1746C24.6678 35.7439 23.9328 36.0234 23.1875 36.0234C22.4422 36.0234 21.7031 35.742 21.1369 35.1759L14.5119 28.5509C13.3825 27.4184 13.3825 25.581 14.5119 24.4485C15.6443 23.3161 17.4817 23.3161 18.6142 24.4485L23.1875 29.0258L34.3879 17.8254C35.5204 16.6929 37.3578 16.6929 38.4902 17.8254C39.6154 18.9537 39.6154 20.7963 38.4871 21.9246Z" fill="#256EFF"/>
</svg>