<svg width="53" height="53" viewBox="0 0 53 53" fill="none" xmlns="http://www.w3.org/2000/svg">
    <path d="M26.5 0C11.8629 0 0 11.8629 0 26.5C0 41.1371 11.8629 53 26.5 53C41.1371 53 53 41.1371 53 26.5C53 11.8629 41.1371 0 26.5 0ZM34.7916 31.3652C35.7621 32.3357 35.7621 33.9076 34.7916 34.8786C33.8205 35.8496 32.2493 35.8488 31.2783 34.8786L26.5 30.0092L21.6317 34.8775C20.6606 35.8486 19.0893 35.8478 18.1183 34.8775C17.1479 33.9071 17.1479 32.3352 18.1183 31.3642L22.9867 26.4959L18.1152 21.5416C17.1448 20.5711 17.1448 18.9993 18.1152 18.0283C19.0857 17.0573 20.6576 17.0578 21.6286 18.0283L26.5 22.9908L31.3683 18.1225C32.3388 17.152 33.9107 17.152 34.8817 18.1225C35.8526 19.0929 35.8521 20.6648 34.8817 21.6358L30.0133 26.5041L34.7916 31.3652Z" fill="#F25F5C" />
</svg>
    