<svg width="20" height="20" viewBox="0 0 19 17" fill="none" xmlns="http://www.w3.org/2000/svg">
    <path d="M17.375 13.0333H9.26094C8.82852 12.0346 7.84062 11.3333 6.6875 11.3333C5.53438 11.3333 4.54648 12.0346 4.11406 13.0333H1.625C1.00379 13.0333 0.5 13.5409 0.5 14.1667C0.5 14.7925 1.00379 15.3 1.625 15.3H4.1123C4.54648 16.2987 5.53438 17 6.6875 17C7.84062 17 8.82816 16.2998 9.2627 15.3H17.375C17.9962 15.3 18.5 14.7925 18.5 14.1667C18.5 13.5409 17.9973 13.0333 17.375 13.0333ZM6.6875 15.3C6.06734 15.3 5.5625 14.7914 5.5625 14.1667C5.5625 13.5419 6.06734 13.0333 6.6875 13.0333C7.30766 13.0333 7.8125 13.5419 7.8125 14.1667C7.8125 14.7914 7.30625 15.3 6.6875 15.3ZM17.375 7.36667H14.8877C14.4535 6.36792 13.4656 5.66667 12.3125 5.66667C11.1594 5.66667 10.1715 6.36792 9.73906 7.36667H1.625C1.00379 7.36667 0.5 7.87312 0.5 8.5C0.5 9.12687 1.00379 9.63333 1.625 9.63333H9.73906C10.1715 10.6321 11.1594 11.3333 12.3125 11.3333C13.4656 11.3333 14.4532 10.6331 14.8877 9.63333H17.375C17.9962 9.63333 18.5 9.12581 18.5 8.5C18.5 7.87419 17.9973 7.36667 17.375 7.36667ZM12.3125 9.63333C11.6923 9.63333 11.1875 9.12475 11.1875 8.5C11.1875 7.87525 11.6923 7.36667 12.3125 7.36667C12.9327 7.36667 13.4375 7.87525 13.4375 8.5C13.4375 9.12475 12.9313 9.63333 12.3125 9.63333ZM1.625 3.96667H5.23906C5.67148 4.96542 6.65938 5.66667 7.8125 5.66667C8.96562 5.66667 9.95316 4.96648 10.3877 3.96667H17.375C17.9962 3.96667 18.5 3.45915 18.5 2.83333C18.5 2.20752 17.9962 1.7 17.375 1.7H10.3859C9.95352 0.700188 8.96562 0 7.8125 0C6.65938 0 5.67148 0.700188 5.23906 1.7H1.625C1.00379 1.7 0.5 2.20752 0.5 2.83333C0.5 3.45915 1.00379 3.96667 1.625 3.96667ZM7.8125 1.7C8.43266 1.7 8.9375 2.20858 8.9375 2.83333C8.9375 3.45808 8.43266 3.96667 7.8125 3.96667C7.19234 3.96667 6.6875 3.45808 6.6875 2.83333C6.6875 2.20858 7.19375 1.7 7.8125 1.7Z" fill="#323641" />
</svg>
    
