<svg width="21" height="18" viewBox="0 0 21 18" fill="none" xmlns="http://www.w3.org/2000/svg">
<path d="M18.6091 9.23443L18.6092 9.23437C20.666 7.10781 20.5508 3.58753 18.2773 1.61847C16.2821 -0.078129 13.2802 0.2108 11.4364 2.11408L11.4358 2.11466L10.6443 2.92911L10.2857 3.29804L9.92718 2.92911L9.13564 2.11466L9.13491 2.1139C7.29122 0.208865 4.2527 -0.0757723 2.29759 1.61691L18.6091 9.23443ZM18.6091 9.23443L10.8504 17.2583C10.8504 17.2584 10.8504 17.2584 10.8504 17.2584C10.5389 17.5805 10.0358 17.5805 9.72463 17.2588L9.72458 17.2587M18.6091 9.23443L9.72458 17.2587M9.72458 17.2587L1.96195 9.23484M9.72458 17.2587L1.96195 9.23484M1.96195 9.23484C1.96193 9.23481 1.96191 9.23479 1.96188 9.23477M1.96195 9.23484L1.96188 9.23477M1.96188 9.23477C-0.0951548 7.10756 0.0203858 3.5901 2.29746 1.61702L1.96188 9.23477Z" stroke="#8B91A1"/>
</svg>
