<svg width="15" height="15" viewBox="0 0 15 15" fill="none" xmlns="http://www.w3.org/2000/svg">
<path d="M7.5 0C11.6426 0 15 3.35742 15 7.5C15 11.6426 11.6426 15 7.5 15C5.90918 15 4.42969 14.502 3.21387 13.6553C2.78906 13.333 2.68477 12.7734 2.98242 12.3486C3.27832 11.9238 3.86133 11.8213 4.28613 12.1172C5.19727 12.7529 6.30469 13.125 7.5 13.125C10.6055 13.125 13.125 10.6055 13.125 7.5C13.125 4.36816 10.6055 1.875 7.5 1.875C5.9209 1.875 4.54102 2.50371 3.52148 3.52148L4.42383 4.42383C4.86621 4.86621 4.55273 5.625 3.92871 5.625H0.703125C0.314941 5.625 0 5.31152 0 4.92188V1.69746C0 1.07109 0.757324 0.757324 1.20029 1.20029L2.19668 2.19668C3.55371 0.840527 5.42871 0 7.47363 0H7.5ZM7.5 3.75C7.88965 3.75 8.20312 4.06348 8.20312 4.45312V7.20996L10.0811 9.11133C10.3799 9.38672 10.3799 9.83203 10.0811 10.0811C9.83203 10.3799 9.38672 10.3799 9.11133 10.0811L7.00195 7.97168C6.87012 7.86621 6.79688 7.6875 6.79688 7.5V4.45312C6.79688 4.06348 7.11035 3.75 7.5 3.75Z" fill="#5A6278"/>
</svg>
