<svg width="640" height="513" viewBox="0 0 640 513" fill="none" xmlns="http://www.w3.org/2000/svg">
    <g clip-path="url(#clip0_16_1308)">
        <path d="M598.6 41.4256C570.1 13.8156 534.8 0.015625 498.6 0.015625C462.4 0.015625 426.24 13.8156 398.64 41.4256L355.28 84.7856C370.39 92.7976 384.75 102.366 397.19 114.806C400.336 117.952 403.088 121.324 405.932 124.644L443.892 86.6836C458.5 72.0656 477.1 64.0156 498.6 64.0156C519.27 64.0156 538.7 72.0626 553.31 86.6756C567.92 101.286 575.97 120.716 575.97 141.386C575.97 162.056 567.921 181.486 553.31 196.096L420.01 329.396C405.5 343.116 386 352.016 365.4 352.016C344.8 352.016 325.3 343.968 310.69 329.356C296 314.716 287.1 295.316 287.1 274.616C287.1 253.916 295.147 234.516 309.76 219.906L314.2 216.416C312.1 212.516 309.9 208.516 306.7 205.316C298.1 196.716 286.8 192.016 274.6 192.016C262.67 192.016 251.5 196.68 242.99 204.986C212.28 258.946 219.36 328.586 265.38 374.586C293 402.216 329.2 416.016 365.4 416.016C401.58 416.016 437.76 402.216 465.36 374.606L598.6 241.316C627.05 212.866 640.84 175.306 639.97 138.016C639.1 102.116 625.4 68.1756 598.6 41.4256ZM234 387.416L196.1 425.316C181.5 439.116 162 448.016 141.4 448.016C120.73 448.016 101.3 439.969 86.69 425.356C72.08 410.746 64.03 391.316 64.03 370.646C64.03 349.976 72.079 330.546 86.69 315.936L219.99 182.636C234.5 168.016 253.1 160.016 274.6 160.016C296.1 160.016 314.7 168.064 329.31 182.676C343.93 197.286 351.97 216.716 351.97 237.386C351.97 258.056 343.923 277.486 329.31 292.096L325.8 295.616C327.894 299.555 330.019 303.511 333.265 306.766C341.9 315.316 353.3 320.016 365.4 320.016C377.33 320.016 388.5 315.352 397.01 307.046C427.72 253.086 420.64 183.446 374.62 137.446C346.1 109.816 310.8 96.0156 274.6 96.0156C238.4 96.0156 202.3 109.816 174.7 137.416L41.41 270.716C13.81 298.316 5.4347e-10 334.496 5.4347e-10 370.676C-9.99995e-05 406.856 13.8 443.036 41.41 470.646C69.01 498.216 105.2 512.016 141.4 512.016C177.58 512.016 213.76 498.216 241.36 470.606L284.72 427.246C269.61 419.234 255.25 409.666 242.81 397.226C239.6 394.116 236.9 390.716 234 387.416Z" fill="#000" />
    </g>
    <defs>
        <clipPath id="clip0_16_1308">
            <rect width="640" height="512" fill="white" transform="translate(0 0.015625)" />
        </clipPath>
    </defs>
</svg>
    