<?xml version="1.0" encoding="UTF-8"?><svg xmlns="http://www.w3.org/2000/svg" xmlns:xlink="http://www.w3.org/1999/xlink" viewBox="0 0 198.15 48.56"><defs><style>.cls-1{fill:url(#linear-gradient);}.cls-2{fill:#323641;}.cls-3{fill:url(#linear-gradient-2);}.cls-3,.cls-4,.cls-5{mix-blend-mode:multiply;opacity:.5;}.cls-4{fill:url(#linear-gradient-4);}.cls-5{fill:url(#linear-gradient-3);}.cls-6{fill:url(#linear-gradient-8);}.cls-7{fill:url(#linear-gradient-6);}.cls-8{fill:url(#linear-gradient-7);}.cls-9{fill:url(#linear-gradient-5);}.cls-10{isolation:isolate;}</style><linearGradient id="linear-gradient" x1="15.66" y1="45.44" x2="39.65" y2="3.89" gradientUnits="userSpaceOnUse"><stop offset=".08" stop-color="#00d280"/><stop offset=".31" stop-color="#19c39f"/><stop offset=".8" stop-color="#59a0ef"/><stop offset=".9" stop-color="#69f"/></linearGradient><linearGradient id="linear-gradient-2" x1="5.07" y1="19.43" x2="14.03" y2="19.43" gradientUnits="userSpaceOnUse"><stop offset="0" stop-color="#1e4f3c"/><stop offset=".52" stop-color="#285745" stop-opacity="0"/></linearGradient><linearGradient id="linear-gradient-3" x1="13.7" y1="15.65" x2="13.7" y2="3.02" gradientUnits="userSpaceOnUse"><stop offset="0" stop-color="#1e4f3c"/><stop offset=".52" stop-color="#285745" stop-opacity="0"/></linearGradient><linearGradient id="linear-gradient-4" x1="13.69" y1="-303.19" x2="13.69" y2="-317.93" gradientTransform="translate(0 -284.46) scale(1 -1)" xlink:href="#linear-gradient-3"/><linearGradient id="linear-gradient-5" x1="2.68" y1="23.04" x2="22.56" y2="34.52" gradientUnits="userSpaceOnUse"><stop offset=".2" stop-color="#285745" stop-opacity="0"/><stop offset=".55" stop-color="#285745"/><stop offset=".9" stop-color="#285745" stop-opacity="0"/></linearGradient><linearGradient id="linear-gradient-6" x1="1.83" y1="24.52" x2="21.71" y2="35.99" gradientUnits="userSpaceOnUse"><stop offset=".2" stop-color="#285745" stop-opacity="0"/><stop offset=".65" stop-color="#285745"/><stop offset="1" stop-color="#285745" stop-opacity="0"/></linearGradient><linearGradient id="linear-gradient-7" x1="22.62" y1="12.91" x2="52.26" y2="30.02" gradientUnits="userSpaceOnUse"><stop offset=".34" stop-color="#285745" stop-opacity="0"/><stop offset=".63" stop-color="#285745"/><stop offset=".88" stop-color="#285745" stop-opacity="0"/></linearGradient><linearGradient id="linear-gradient-8" x1="20.34" y1="16.86" x2="49.98" y2="33.97" xlink:href="#linear-gradient-7"/></defs><g class="cls-10"><g id="Layer_2"><g id="Layer_1-2"><g><g><path class="cls-2" d="M80.94,39.04c-1.34,0-2.48-.22-3.43-.66-.95-.44-1.72-.96-2.32-1.56-.6-.6-1.04-1.15-1.32-1.66-.28-.51-.46-.83-.53-.98h-.11l-.69,4.32h-3.8V8.82h4.48l.05,13.18h.11c.03-.14,.18-.47,.45-1s.68-1.11,1.24-1.74c.56-.63,1.32-1.18,2.27-1.63,.95-.46,2.14-.69,3.59-.69,3.13,0,5.44,1.04,6.93,3.11,1.49,2.07,2.24,4.75,2.24,8.01s-.75,5.87-2.24,7.91c-1.49,2.04-3.81,3.06-6.93,3.06Zm-1.27-3.8c1.55,0,2.77-.34,3.67-1.03,.9-.69,1.53-1.58,1.9-2.69s.55-2.28,.55-3.51-.2-2.34-.61-3.43c-.4-1.09-1.07-1.98-2-2.66-.93-.69-2.17-1.03-3.72-1.03-2.04,0-3.57,.66-4.59,1.98-1.02,1.32-1.53,3.03-1.53,5.14s.54,3.93,1.61,5.25c1.07,1.32,2.64,1.98,4.72,1.98Z"/><path class="cls-2" d="M101.72,39.04c-1.83,0-3.28-.34-4.35-1.03s-1.86-1.59-2.37-2.71c-.51-1.12-.84-2.32-1-3.59s-.24-2.5-.24-3.69v-11.07h4.32v11.07c0,1.27,.12,2.44,.37,3.53,.25,1.09,.75,1.96,1.5,2.61,.75,.65,1.91,.98,3.45,.98s2.62-.33,3.43-1c.81-.67,1.38-1.53,1.71-2.58,.33-1.05,.52-2.16,.55-3.32l.05-11.28h4.48v21.57h-3.74l-.74-4.48h-.11c-.14,.46-.47,1.08-1,1.87s-1.3,1.51-2.32,2.16c-1.02,.65-2.36,.98-4.01,.98Z"/><path class="cls-2" d="M127.76,39.04c-2.42,0-4.41-.54-5.96-1.61-1.55-1.07-2.69-2.45-3.43-4.14s-1.11-3.46-1.11-5.33c-.04-2.07,.36-3.96,1.19-5.64,.83-1.69,2.02-3.02,3.58-4.01,1.56-.98,3.44-1.48,5.62-1.48,1.86,0,3.54,.41,5.04,1.24,1.49,.83,2.68,1.99,3.56,3.48,.88,1.49,1.35,3.26,1.42,5.3,0,.11,.02,.51,.05,1.21h-16.29c0,2.36,.55,4.16,1.66,5.41s2.64,1.87,4.61,1.87c1.48,0,2.73-.38,3.77-1.13,1.04-.76,1.68-1.77,1.92-3.03h4.27c-.32,2.25-1.34,4.12-3.06,5.61-1.72,1.5-4.01,2.24-6.85,2.24Zm-6.17-12.97h11.71c-.04-.39-.14-.9-.32-1.53-.18-.63-.47-1.26-.87-1.87-.41-.61-.98-1.13-1.71-1.55s-1.69-.63-2.85-.63c-1.44,0-2.58,.31-3.4,.92-.83,.62-1.44,1.35-1.85,2.21-.4,.86-.64,1.68-.71,2.45Z"/><path class="cls-2" d="M154.5,39.04c-1.34,0-2.48-.22-3.43-.66-.95-.44-1.72-.96-2.32-1.56-.6-.6-1.04-1.15-1.32-1.66-.28-.51-.46-.83-.53-.98h-.11l-.69,4.32h-3.8V8.82h4.48l.05,13.18h.11c.03-.14,.18-.47,.45-1s.68-1.11,1.24-1.74c.56-.63,1.32-1.18,2.27-1.63,.95-.46,2.14-.69,3.59-.69,3.13,0,5.44,1.04,6.93,3.11,1.49,2.07,2.24,4.75,2.24,8.01s-.75,5.87-2.24,7.91c-1.49,2.04-3.81,3.06-6.93,3.06Zm-1.27-3.8c1.55,0,2.77-.34,3.67-1.03,.9-.69,1.53-1.58,1.9-2.69s.55-2.28,.55-3.51-.2-2.34-.61-3.43c-.4-1.09-1.07-1.98-2-2.66-.93-.69-2.17-1.03-3.72-1.03-2.04,0-3.57,.66-4.59,1.98-1.02,1.32-1.53,3.03-1.53,5.14s.54,3.93,1.61,5.25c1.07,1.32,2.64,1.98,4.72,1.98Z"/><path class="cls-2" d="M170.63,14.23c-.95,0-1.58-.18-1.9-.54-.32-.36-.47-.91-.47-1.65,0-.63,.16-1.26,.47-1.87,.32-.61,.95-.92,1.9-.92s1.54,.31,1.87,.92c.33,.62,.5,1.24,.5,1.87,0,.74-.17,1.29-.5,1.65-.33,.36-.96,.54-1.87,.54Zm-2.21,24.28V16.94h4.38v21.57h-4.38Z"/><path class="cls-2" d="M187.61,39.04c-3.58,0-6.26-1.04-8.01-3.11s-2.64-4.71-2.64-7.91c-.04-3.23,.84-5.89,2.64-7.96,1.79-2.07,4.46-3.11,8.01-3.11s6.06,1.01,7.86,3.03,2.69,4.7,2.69,8.04c0,2.07-.38,3.95-1.13,5.62-.76,1.67-1.92,2.99-3.48,3.95-1.56,.97-3.54,1.45-5.93,1.45Zm0-3.74c1.69,0,2.98-.37,3.88-1.11s1.52-1.68,1.87-2.82c.35-1.14,.53-2.31,.53-3.51s-.18-2.36-.53-3.51c-.35-1.14-.97-2.08-1.87-2.82s-2.19-1.11-3.88-1.11-3.04,.37-3.95,1.11c-.92,.74-1.55,1.68-1.9,2.82-.35,1.14-.53,2.31-.53,3.51s.18,2.36,.53,3.51c.35,1.14,.98,2.08,1.9,2.82,.91,.74,2.23,1.11,3.95,1.11Z"/></g><g><path class="cls-1" d="M28.74,48.56c-9.64,0-16.1-4.98-16.37-5.19l-.83-.65v-9.8c-6.52-2.67-10.17-6.96-10.39-7.22l-1.15-1.38,1.13-1.38c.22-.26,3.85-4.61,10.4-7.3V5.86l.81-.65c.26-.21,6.58-5.21,15.79-5.21,6.44,0,10.4,2.99,12.59,5.5,2.67,3.06,4.2,7.14,4.2,11.2,0,2.29-.41,4.43-1.21,6.39,2.8,3.22,4.43,6.86,4.43,10.23,0,9.4-7.43,15.24-19.4,15.24Zm-12.87-8.04c1.84,1.16,6.59,3.71,12.87,3.71,4.53,0,15.07-1.06,15.07-10.91,0-2.02-.89-4.21-2.45-6.28-1.15,1.42-2.58,2.7-4.26,3.81-4.04,2.66-9.45,4.19-14.83,4.19-2.31,0-4.44-.27-6.4-.73v6.22Zm0-10.7c1.92,.54,4.06,.88,6.4,.88,5.3,0,12.46-1.93,16.06-6.85-4.03-3.43-9.86-5.99-16.06-5.99-2.34,0-4.48,.34-6.4,.88v11.08Zm-10-5.52c1.19,1.06,3.11,2.56,5.67,3.84v-7.72c-2.57,1.29-4.49,2.81-5.67,3.88ZM22.27,13.53c6.99,0,13.31,2.57,17.96,6.25,.23-.96,.36-1.98,.36-3.08,0-5.99-4.36-12.36-12.45-12.36-5.91,0-10.48,2.53-12.26,3.69v6.24c1.95-.45,4.09-.73,6.4-.73Z"/><path class="cls-3" d="M5.84,24.3c-1.04-.96-1.47-4.63,1.62-6.6,0,0,1.78-1.13,4.06-2.05l2.5-1.1-.22,4.76-2.3,1.09s-3.33,1.65-5.67,3.89Z"/><path class="cls-5" d="M15.87,14.26s-3.05,.75-4.34,1.38c.05-2.6,0-9.79,0-9.79,0,0,2.17-1.91,4.34-2.84V14.26Z"/><path class="cls-4" d="M15.87,18.73s-2.13,.56-4.36,1.68c.05,2.6,0,13.05,0,13.05h4.36v-14.73Z"/><path class="cls-9" d="M22.27,30.71c-2.34,0-4.47-.36-6.4-.9v4.49c1.96,.46,4.09,.74,6.4,.74v-4.33Z"/><path class="cls-7" d="M4.47,22.93l-3.33,2.78c.22,.26,3.86,4.53,10.36,7.21v-4.79c-4.48-2.25-6.99-5.15-7.03-5.19Z"/><path class="cls-8" d="M25.28,13.7c5.78,.61,10.96,2.94,14.92,6.08-.31,1.24-.88,2.66-1.89,4.08-3.37-2.87-7.99-5.12-13.05-5.79v-4.37Z"/><path class="cls-6" d="M43.11,37.29l4.03,1.58c.66-1.68,.99-3.55,.99-5.55,0-3.38-1.65-7.03-4.47-10.27-.51,1.22-1.26,2.58-2.35,3.95,1.57,2.08,2.48,4.28,2.48,6.31,0,1.46-.23,2.8-.69,3.97Z"/></g></g></g></g></g></svg>