<svg width="15" height="15" viewBox="0 0 15 15" fill="none" xmlns="http://www.w3.org/2000/svg">
<path d="M15 2.34375C15 2.87139 14.5811 3.35742 13.875 3.75C13.0225 4.22168 11.7539 4.55566 10.292 4.65527C10.1865 4.60547 10.0752 4.55566 9.96387 4.50879C8.80664 4.02539 7.27148 3.75 5.625 3.75C5.38184 3.75 5.14453 3.75586 4.90723 3.76758L4.875 3.75C4.16895 3.35742 3.75 2.87139 3.75 2.34375C3.75 1.04941 6.24316 0 9.375 0C12.4805 0 15 1.04941 15 2.34375ZM4.70801 4.71973C5.00684 4.69922 5.31152 4.6875 5.625 4.6875C7.44727 4.6875 9.06445 5.04785 10.0928 5.60742C10.8193 6.00293 11.25 6.49512 11.25 7.03125C11.25 7.12207 11.2295 7.2627 11.1885 7.37402C11.0537 7.76074 10.667 8.11523 10.1631 8.41699C10.1602 8.41699 10.1543 8.41992 10.1514 8.42285C10.1426 8.42871 10.1338 8.43164 10.125 8.4375C9.09961 9.00586 7.46484 9.375 5.625 9.375C3.87891 9.375 2.31621 9.04395 1.28437 8.52246C1.22959 8.49316 1.17627 8.44043 1.12471 8.4375C0.418359 8.04492 0 7.55859 0 7.03125C0 6.01172 1.56533 5.1416 3.75 4.82227C4.05762 4.77539 4.37695 4.74023 4.70801 4.71973ZM11.4814 5.4668C12.3105 5.33789 13.0693 5.13281 13.7139 4.86621C14.1914 4.66699 14.6338 4.4209 15 4.11914V5.15625C15 5.72168 14.5166 6.24316 13.7168 6.64746C13.2861 6.86426 12.7676 7.0459 12.1816 7.18652C12.1846 7.13672 12.1875 7.08398 12.1875 7.03125C12.1875 6.38965 11.877 5.8623 11.4814 5.4668ZM11.25 9.84375C11.25 10.3711 10.8311 10.8574 10.125 11.25C10.0723 11.2529 10.0195 11.3057 9.9668 11.335C8.93262 11.8564 7.37109 12.1875 5.625 12.1875C3.78516 12.1875 2.15098 11.8184 1.12471 11.25C0.418359 10.8574 8.78906e-06 10.3711 8.78906e-06 9.84375V8.80664C0.364746 9.1084 0.80918 9.35449 1.28701 9.55371C2.44453 10.0371 3.97852 10.3125 5.625 10.3125C7.27148 10.3125 8.80664 10.0371 9.96387 9.55371C10.1924 9.45996 10.4121 9.35156 10.6201 9.23438C10.7988 9.13477 10.9658 9.02344 11.124 8.90625C11.168 8.87402 11.209 8.83887 11.25 8.80664V9.84375ZM12.1875 8.14746C12.7178 8.00098 13.2568 7.86914 13.7139 7.67871C14.1914 7.47949 14.6338 7.2334 15 6.93164V7.96875C15 8.27637 14.8535 8.58398 14.5635 8.87402C14.0859 9.35156 13.2451 9.74414 12.1816 9.99902C12.1846 9.94922 12.1875 9.89648 12.1875 9.84375V8.14746ZM5.625 13.125C7.27148 13.125 8.80664 12.8496 9.96387 12.3662C10.4414 12.167 10.8838 11.9209 11.25 11.6191V12.6562C11.25 13.9512 8.73047 15 5.625 15C2.51836 15 8.78906e-06 13.9512 8.78906e-06 12.6562V11.6191C0.364746 11.9209 0.80918 12.167 1.28701 12.3662C2.44453 12.8496 3.97852 13.125 5.625 13.125Z" fill="#5A6278"/>
</svg>
