<svg width="18" height="15" viewBox="0 0 18 15" fill="none" xmlns="http://www.w3.org/2000/svg">
<path d="M8.99719 8.90625C10.6118 8.90625 11.8969 7.61039 11.8969 6.01172C11.8969 4.41305 10.5879 3.11719 8.99719 3.11719C7.38253 3.11719 6.0975 4.41305 6.0975 6.01172C6.07219 7.60928 7.38281 8.90625 8.99719 8.90625ZM10.4034 9.79688H7.59656C5.38875 9.79688 3.6 11.4584 3.6 13.5069C3.6 13.9188 3.95719 14.25 4.39875 14.25H13.6012C14.0428 14.25 14.4 13.9188 14.4 13.5069C14.4 11.4584 12.6112 9.79688 10.4034 9.79688ZM14.4 4.45313C15.6426 4.45313 16.65 3.45618 16.65 2.22656C16.65 0.996943 15.6431 0 14.4 0C13.1574 0 12.15 0.996943 12.15 2.22656C12.15 3.45618 13.1569 4.45313 14.4 4.45313ZM5.17219 6.01172C5.17219 5.86006 5.19982 5.71586 5.21744 5.56891C4.91062 5.4022 4.57312 5.34375 4.21594 5.34375H2.47725C1.10925 5.34375 0 6.50713 0 7.94048C0 8.22715 0.221822 8.46094 0.495563 8.46094H6.1065C5.53219 7.79854 5.17219 6.94966 5.17219 6.01172ZM3.6 4.45313C4.84256 4.45313 5.85 3.45618 5.85 2.22656C5.85 0.996943 4.84312 0 3.6 0C2.35744 0 1.35 0.996943 1.35 2.22656C1.35 3.45618 2.35744 4.45313 3.6 4.45313ZM15.5222 5.34375H13.7829C13.4229 5.34375 13.0832 5.42828 12.7744 5.57309C12.7913 5.71948 12.8194 5.86143 12.8194 6.01172C12.8194 6.94994 12.4599 7.79881 11.8868 8.46094H17.5033C17.7778 8.46094 18 8.22715 18 7.94048C18 6.50713 16.8919 5.34375 15.5222 5.34375Z" fill="#323641"/>
</svg>
