<svg width="14" height="15" viewBox="0 0 14 15" fill="none" xmlns="http://www.w3.org/2000/svg">
<path d="M13.9895 1.07969L12.2394 13.241C12.1984 13.5262 12.0378 13.7748 11.8027 13.9163C11.6703 13.996 11.5219 14.0363 11.374 14.0363C11.2595 14.0363 11.1465 14.0124 11.0379 13.9639L7.68546 12.4668L6.29471 14.7019C6.18806 14.8975 6.01032 15 5.81891 15C5.50445 15 5.25014 14.7275 5.25014 14.3906V11.5728C5.25014 11.3644 5.315 11.1618 5.4345 10.9974L11.3754 2.81233L3.34421 10.5556L0.538375 9.30168C0.230692 9.16398 0.0221751 8.85343 0.00166657 8.46964C-0.018842 8.08584 0.151215 7.77471 0.440822 7.59746L12.6912 0.123723C12.9836 -0.0552537 13.3442 -0.0387886 13.621 0.164915C13.8977 0.368619 14.0415 0.724025 13.9895 1.07969Z" fill="#5A6278"/>
</svg>
