<svg width="8" height="10" viewBox="0 0 8 10" fill="none" xmlns="http://www.w3.org/2000/svg">
<path d="M3.99947 9.11932C3.38583 9.11932 2.84038 9.0142 2.3631 8.80398C1.88867 8.59375 1.51367 8.30114 1.2381 7.92614C0.962536 7.55114 0.816229 7.1179 0.799183 6.62642H2.40146C2.41566 6.86222 2.49379 7.06818 2.63583 7.24432C2.77788 7.41761 2.9668 7.55256 3.20259 7.64915C3.43839 7.74574 3.70259 7.79403 3.99521 7.79403C4.30771 7.79403 4.58469 7.74006 4.82617 7.6321C5.06765 7.52131 5.25657 7.3679 5.39293 7.17188C5.5293 6.97585 5.59606 6.75 5.59322 6.49432C5.59606 6.23011 5.52788 5.99716 5.38867 5.79545C5.24947 5.59375 5.04776 5.43608 4.78356 5.32244C4.52219 5.20881 4.20685 5.15199 3.83754 5.15199H3.06623V3.93324H3.83754C4.14151 3.93324 4.40714 3.88068 4.63441 3.77557C4.86452 3.67045 5.04492 3.52273 5.1756 3.33239C5.30629 3.1392 5.37021 2.91619 5.36737 2.66335C5.37021 2.41619 5.31481 2.2017 5.20117 2.01989C5.09038 1.83523 4.93271 1.69176 4.72816 1.58949C4.52646 1.48722 4.28924 1.43608 4.01651 1.43608C3.74947 1.43608 3.50231 1.48437 3.27504 1.58097C3.04776 1.67756 2.86452 1.81534 2.72532 1.99432C2.58612 2.17045 2.51225 2.38068 2.50373 2.625H0.982422C0.993786 2.13636 1.13441 1.70739 1.4043 1.33807C1.67702 0.965909 2.04066 0.676136 2.49521 0.46875C2.94975 0.258523 3.45969 0.153409 4.02504 0.153409C4.60742 0.153409 5.1131 0.262784 5.54208 0.481534C5.9739 0.697443 6.30771 0.988636 6.5435 1.35511C6.7793 1.72159 6.89719 2.12642 6.89719 2.5696C6.90004 3.06108 6.75515 3.47301 6.46254 3.8054C6.17276 4.13778 5.79208 4.35511 5.32049 4.45739V4.52557C5.93413 4.6108 6.4043 4.83807 6.731 5.20739C7.06055 5.57386 7.2239 6.02983 7.22106 6.57528C7.22106 7.06392 7.08185 7.50142 6.80344 7.88778C6.52788 8.27131 6.14719 8.57244 5.6614 8.79119C5.17844 9.00994 4.62447 9.11932 3.99947 9.11932Z" fill="white"/>
</svg>
