<svg width="8" height="9" viewBox="0 0 8 9" fill="none" xmlns="http://www.w3.org/2000/svg">
<path d="M1.04901 9V7.85795L4.07884 4.88778C4.36861 4.59517 4.61009 4.33523 4.80327 4.10795C4.99645 3.88068 5.14134 3.66051 5.23793 3.44744C5.33452 3.23437 5.38281 3.0071 5.38281 2.76562C5.38281 2.49006 5.32031 2.25426 5.19531 2.05824C5.07031 1.85938 4.89844 1.70597 4.67969 1.59801C4.46094 1.49006 4.21236 1.43608 3.93395 1.43608C3.64702 1.43608 3.3956 1.49574 3.17969 1.61506C2.96378 1.73153 2.79616 1.89773 2.67685 2.11364C2.56037 2.32955 2.50213 2.58665 2.50213 2.88494H0.997869C0.997869 2.33097 1.12429 1.84943 1.37713 1.44034C1.62997 1.03125 1.97798 0.714488 2.42116 0.490057C2.86719 0.265625 3.37855 0.153409 3.95526 0.153409C4.54048 0.153409 5.05469 0.262784 5.49787 0.481534C5.94105 0.700284 6.2848 1 6.52912 1.38068C6.77628 1.76136 6.89986 2.19602 6.89986 2.68466C6.89986 3.01136 6.83736 3.33239 6.71236 3.64773C6.58736 3.96307 6.36719 4.3125 6.05185 4.69602C5.73935 5.07955 5.30043 5.54403 4.73509 6.08949L3.23082 7.61932V7.67898H7.03196V9H1.04901Z" fill="white"/>
</svg>
