<svg width="20" height="20" viewBox="0 0 19 18" fill="none" xmlns="http://www.w3.org/2000/svg">
    <path d="M18.0887 15.5972L13.8805 11.3894C14.8374 9.96889 15.3096 8.19404 15.0568 6.30283C14.6258 3.08603 11.9891 0.468219 8.76874 0.0605557C3.98079 -0.545227 -0.045316 3.48044 0.560569 8.26786C0.968383 11.4892 3.58683 14.1278 6.80434 14.5566C8.69576 14.8093 10.4712 14.3374 11.8915 13.3804L16.0997 17.5882C16.6488 18.1373 17.5393 18.1373 18.0885 17.5882C18.6371 17.0384 18.6371 16.1455 18.0887 15.5972ZM3.28083 7.31171C3.28083 4.83064 5.29951 2.81219 7.78085 2.81219C10.2622 2.81219 12.2809 4.83064 12.2809 7.31171C12.2809 9.79277 10.2622 11.8112 7.78085 11.8112C5.29951 11.8112 3.28083 9.79347 3.28083 7.31171Z" fill="#8B91A1" />
</svg>
    